<?xml version="1.0" encoding="UTF-8" standalone="no"?>
<!-- Created with Inkscape (http://www.inkscape.org/) -->

<svg
   xmlns:dc="http://purl.org/dc/elements/1.1/"
   xmlns:cc="http://creativecommons.org/ns#"
   xmlns:rdf="http://www.w3.org/1999/02/22-rdf-syntax-ns#"
   xmlns:svg="http://www.w3.org/2000/svg"
   xmlns="http://www.w3.org/2000/svg"
   xmlns:sodipodi="http://sodipodi.sourceforge.net/DTD/sodipodi-0.dtd"
   xmlns:inkscape="http://www.inkscape.org/namespaces/inkscape"
   version="1.1"
   id="svg4118"
   width="777.7959"
   height="263.02042"
   viewBox="0 0 777.7959 263.02042"
   sodipodi:docname="logoUI.svg"
   inkscape:version="0.92.4 (5da689c313, 2019-01-14)">
  <metadata
     id="metadata4124">
    <rdf:RDF>
      <cc:Work
         rdf:about="">
        <dc:format>image/svg+xml</dc:format>
        <dc:type
           rdf:resource="http://purl.org/dc/dcmitype/StillImage" />
        <dc:title />
      </cc:Work>
    </rdf:RDF>
  </metadata>
  <defs
     id="defs4122" />
  <sodipodi:namedview
     pagecolor="#ffffff"
     bordercolor="#666666"
     borderopacity="1"
     objecttolerance="10"
     gridtolerance="10"
     guidetolerance="10"
     inkscape:pageopacity="0"
     inkscape:pageshadow="2"
     inkscape:window-width="1366"
     inkscape:window-height="745"
     id="namedview4120"
     showgrid="false"
     inkscape:zoom="0.49370278"
     inkscape:cx="109.37755"
     inkscape:cy="131.51021"
     inkscape:window-x="-8"
     inkscape:window-y="-8"
     inkscape:window-maximized="1"
     inkscape:current-layer="svg4118" />
  <path
     style="fill:#ffffff;stroke-width:0.48979592"
     d="M 69.551019,262.08292 C 62.900065,260.94981 58.696368,259.88244 52.65306,257.79232 26.898529,248.88491 7.6506075,225.93537 1.396599,196.67858 0.3552065,191.80686 0.2448979,190.07111 0.2448979,178.55613 c 0,-14.25266 0.5026415,-17.76037 3.9896226,-27.84182 C 14.491634,121.05924 38.189107,99.8775 70.384935,91.586419 l 4.507386,-1.16074 1.300125,-5.64906 c 2.810096,-12.20991 8.36423,-25.80614 13.94586,-34.13873 15.297574,-22.83713 45.256204,-41.81053 75.657604,-47.91547 3.23266,-0.64915 7.86123,-1.46642 10.28572,-1.81614 6.00163,-0.86573 31.16722,-0.85525 37.71428,0.0157 42.31333,5.62889 78.44552,31.60801 91.70228,65.93414 0.93347,2.41706 2.3031,6.71786 3.0436,9.55732 l 1.34638,5.16265 1.83096,-7.83651 c 3.3766,-14.45184 5.13418,-20.84709 6.1034,-22.20823 1.27856,-1.79558 5.05334,-3.77793 8.38154,-4.40164 1.8123,-0.33962 67.37,-0.55615 200.32653,-0.66166 212.73903,-0.16881 199.6415,-0.31511 210.36734,2.34975 10.03004,2.49198 18.18847,6.72193 24.79817,12.85724 8.34622,7.74723 13.50608,17.99967 15.4392,30.67701 1.03386,6.780341 0.66377,20.512771 -0.75512,28.019351 -2.89435,15.31197 -8.42924,27.625 -16.57748,36.87861 -4.5551,5.17305 -8.73198,8.65068 -16.78232,13.97292 -8.62898,5.70478 -13.50793,8.27072 -19.83673,10.4326 -11.29969,3.85991 -32.67448,6.40778 -54.44552,6.48992 l -8.8945,0.0335 -0.76511,4.24979 c -0.42078,2.33738 -1.77713,9.87019 -3.01406,16.73958 -5.71489,31.73843 -9.23603,44.27962 -13.93484,49.63123 -0.80821,0.92051 -2.62819,2.1974 -4.04444,2.83753 l -2.575,1.1639 -280.40816,0.079 c -267.338524,0.0754 -280.64786,0.0382 -285.551011,-0.79715 z m 245.910961,-11.11805 97.2579,-0.32569 2.05368,-10.08234 c 1.12953,-5.54529 2.05123,-10.35785 2.04822,-10.69458 -0.004,-0.48584 -10.53408,-0.61225 -51.00134,-0.61225 h -50.99587 l 0.22204,-1.10204 c 0.12213,-0.60612 3.27474,-16.25403 7.00581,-34.77313 l 6.78376,-33.67108 47.99871,-0.12484 47.9987,-0.12483 2.10072,-10.28572 c 1.1554,-5.65714 2.10662,-10.45102 2.11382,-10.65306 0.007,-0.20204 -21.47671,-0.36734 -47.74202,-0.36734 -41.64249,0 -47.7551,-0.092 -47.7551,-0.71845 0,-0.57328 8.83096,-44.344361 10.84855,-53.771351 l 0.49793,-2.32653 h 49.88559 c 47.08783,0 49.89969,-0.0481 50.13688,-0.85715 0.26833,-0.91523 4.22289,-20.08347 4.22289,-20.46884 0,-0.12595 -26.3858,-0.173 -58.63511,-0.10457 l -58.63511,0.12443 -8.27181,30.12245 c -4.54949,16.567351 -8.32792,30.182601 -8.39651,30.256111 -0.0686,0.0735 -2.66099,-0.85804 -5.76089,-2.07012 -8.22128,-3.21458 -12.79537,-3.88733 -23.69306,-3.48472 -9.68416,0.35778 -11.01329,0.12292 -12.19078,-2.15408 -1.21812,-2.35559 0.28303,-6.89855 2.83123,-8.56819 1.65938,-1.08726 7.08699,-1.71352 14.94496,-1.7244 l 7.00925,-0.01 -0.32053,-3.55102 c -1.91374,-21.201221 -13.61668,-43.975551 -29.9563,-58.295981 -13.63341,-11.94865 -26.97918,-19.33851 -43.13076,-23.88247 -10.38805,-2.92249 -14.9411,-3.52477 -28.52927,-3.77383 -14.15335,-0.25943 -19.38393,0.34247 -31.2652,3.59777 -31.30136,8.57614 -58.84029,30.77348 -71.637395,57.74227 -2.160421,4.55289 -4.766605,11.42542 -5.52574,14.57143 l -0.325019,1.34693 5.519535,0.005 c 15.958809,0.0152 31.797729,3.43217 44.213409,9.538371 19.14937,9.41793 37.84376,28.01647 46.8086,46.56859 5.00953,10.36687 7.31091,19.76291 7.31046,29.84699 -2.3e-4,5.00247 -0.14518,6.11522 -0.97356,7.47386 -3.02603,4.96308 -10.66506,4.74926 -13.28388,-0.37182 -0.53211,-1.04056 -1.08304,-3.83174 -1.4018,-7.10204 -1.98961,-20.4124 -7.37635,-32.31116 -20.51294,-45.31101 -7.42832,-7.35099 -13.33137,-11.63792 -21.86525,-15.87902 -15.91401,-7.90882 -32.4275,-11.08523 -50.365596,-9.68794 -24.893916,1.9391 -46.916565,15.70473 -59.814863,37.38827 -9.881174,16.6114 -12.27615,37.78094 -6.351044,56.13783 5.838608,18.0889 19.742982,33.72545 38.40906,43.19397 8.307968,4.21428 17.008673,6.9021 27.752522,8.57331 5.207917,0.81009 80.012701,0.95248 232.362521,0.44231 z m -31.83148,-1.42914 c 0.0235,-0.57059 0.13956,-0.68665 0.29591,-0.29592 0.14149,0.35357 0.12409,0.77602 -0.0386,0.93877 -0.16275,0.16276 -0.27852,-0.12653 -0.25725,-0.64285 z m 0.4898,-2.44898 c 0.0235,-0.57059 0.13956,-0.68665 0.29591,-0.29592 0.14149,0.35357 0.12409,0.77602 -0.0386,0.93877 -0.16276,0.16276 -0.27852,-0.12653 -0.25726,-0.64285 z m 0.48979,-2.44898 c 0.0235,-0.57059 0.13956,-0.68665 0.29592,-0.29592 0.14148,0.35357 0.12409,0.77602 -0.0386,0.93877 -0.16275,0.16276 -0.27852,-0.12653 -0.25725,-0.64285 z M 43.172689,220.92215 c 0.147626,-0.40335 0.67502,-2.25572 1.171986,-4.11639 l 0.903574,-3.38303 -2.420044,-2.1171 c -1.331023,-1.16441 -2.585349,-2.12164 -2.78739,-2.12718 -0.20204,-0.006 -0.367347,-0.23048 -0.367347,-0.49987 0,-0.28502 1.610784,-0.4898 3.852761,-0.4898 h 3.85276 l 1.340639,-3.6758 c 0.737352,-2.02168 1.504735,-3.77721 1.705301,-3.90117 0.200562,-0.12395 1.005414,1.47505 1.788554,3.55335 l 1.42389,3.77873 4.157158,0.24489 4.157157,0.2449 -3.302375,2.421 c -1.816305,1.33155 -3.302376,2.45009 -3.302376,2.48564 0,0.0356 0.551021,1.68471 1.22449,3.66479 0.67347,1.98008 1.22449,3.78873 1.22449,4.01921 0,0.23048 -1.267347,-0.39167 -2.816326,-1.38256 -1.54898,-0.99089 -3.174524,-2.02534 -3.612329,-2.29877 -0.767206,-0.47916 -2.216507,0.22464 -7.262062,3.52661 -1.024489,0.67045 -1.161489,0.67817 -0.932511,0.0525 z m 134.378461,-15.54969 1.10539,-3.79592 -1.76509,-1.46939 c -0.9708,-0.80816 -2.32159,-1.95834 -3.00174,-2.55595 l -1.23665,-1.08656 3.96343,-0.0155 3.96344,-0.0155 1.36874,-3.55102 c 0.75281,-1.95306 1.53503,-3.73638 1.73828,-3.96294 0.20325,-0.22656 1.03583,1.3163 1.85018,3.42857 l 1.48064,3.84049 4.00723,0.2449 4.00724,0.2449 -3.17415,2.39376 -3.17415,2.39375 1.22189,3.63422 c 0.67205,1.99881 1.09411,3.76199 0.93793,3.91817 -0.15618,0.15619 -1.68345,-0.62783 -3.39393,-1.74225 -1.71048,-1.11442 -3.33594,-2.02622 -3.61213,-2.02622 -0.27619,0 -1.86622,0.88163 -3.5334,1.95918 -1.66718,1.07755 -3.21738,1.95919 -3.44489,1.95919 -0.22751,0 0.0838,-1.70817 0.69174,-3.79592 z M 39.573318,200.43475 c -0.641752,-0.76268 -1.810826,-3.28346 -2.597942,-5.60174 -1.625262,-4.78686 -1.427186,-6.61602 0.801301,-7.39974 3.170047,-1.11484 4.599242,0.45967 7.053471,7.7707 1.390852,4.14327 1.295608,5.21877 -0.53608,6.05334 -2.020659,0.92067 -3.465794,0.66887 -4.72075,-0.82256 z m -3.937504,-19.87563 -1.594998,-1.08732 0.122413,-4.6211 c 0.146148,-5.51706 1.506795,-11.3355 4.012312,-17.15756 5.094327,-11.83769 16.128592,-22.79456 29.056608,-28.85284 7.393493,-3.46471 17.892607,-5.86673 25.671075,-5.87312 3.216116,-0.002 3.601916,0.10701 4.530616,1.28765 1.31091,1.66656 1.28224,2.69594 -0.11156,4.00535 -0.89682,0.84251 -2.12103,1.16073 -6,1.55966 -9.567781,0.98397 -15.82318,2.63969 -22.261057,5.89219 -16.06319,8.11534 -26.193222,22.56031 -27.732342,39.54508 -0.497533,5.49047 -2.576479,7.42661 -5.693067,5.30201 z M 104.0209,134.84184 c 2.17154,-7.44009 2.30118,-6.70806 -1.73152,-9.77699 l -2.43841,-1.85566 4.05873,-0.2449 4.05872,-0.2449 1.42333,-3.78737 c 0.78283,-2.08305 1.58478,-3.68759 1.7821,-3.56564 0.19731,0.12195 0.99241,1.88137 1.76687,3.90982 l 1.40811,3.68809 3.92762,0.0258 3.92763,0.0258 -1.91824,1.56605 c -1.05503,0.86134 -2.46537,2.0237 -3.13408,2.58304 l -1.21585,1.01698 1.26369,3.75853 c 0.69504,2.06719 1.09261,3.75853 0.8835,3.75853 -0.20912,0 -1.74427,-0.88163 -3.41145,-1.95918 -1.66718,-1.07755 -3.29931,-1.95849 -3.62695,-1.95763 -0.32765,9.8e-4 -1.91817,0.88179 -3.5345,1.95763 -3.26527,2.17338 -3.8565,2.36011 -3.4893,1.10204 z m 152.28049,-12.38447 c 0.16507,-1.20283 0.44465,-3.08959 0.62128,-4.1928 l 0.32114,-2.00584 -3.3566,-2.13675 -3.3566,-2.13674 1.95918,-0.3598 c 1.07755,-0.19789 2.65977,-0.3725 3.51603,-0.38802 2.14632,-0.0389 2.72275,-0.78576 3.79386,-4.91547 1.05896,-4.08289 1.12768,-4.06283 3.76057,1.09803 1.2123,2.3763 1.61296,2.7873 2.53181,2.59719 0.60039,-0.12422 2.41406,-0.36512 4.03038,-0.53533 l 2.93878,-0.30948 -2.89981,2.95371 -2.8998,2.95371 1.55849,3.52847 c 0.85717,1.94066 1.46632,3.62064 1.35366,3.7333 -0.11266,0.11265 -1.83837,-0.54991 -3.83491,-1.47237 l -3.63007,-1.67719 -1.43603,1.17624 c -0.78981,0.64694 -2.29901,1.87371 -3.35377,2.72617 l -1.91774,1.54992 z m 208.67489,88.30284 c 4.49823,-22.02245 8.1759,-40.22499 8.17259,-40.45009 -0.003,-0.22511 9.08581,-0.31823 20.19806,-0.20693 18.70236,0.18731 20.48429,0.27945 23.97379,1.23969 7.84923,2.1599 12.21683,5.2166 16.36105,11.45043 4.35379,6.54905 5.39118,9.3979 20.26075,55.64037 l 3.9768,12.36735 h 13.93832 c 7.66604,0 13.93826,-0.10408 13.93826,-0.23129 0,-0.69455 -18.56434,-56.77901 -20.43232,-61.72789 -4.76581,-12.62598 -8.76245,-19.77018 -13.3849,-23.92615 -2.41812,-2.1741 -7.89806,-5.21671 -9.39566,-5.21671 -0.38801,0 -0.85067,-0.14522 -1.02818,-0.32271 -0.1775,-0.17748 2.0932,-0.93163 5.04593,-1.67589 10.13246,-2.55391 18.94526,-7.64587 26.06576,-15.06049 7.8076,-8.13013 12.04394,-16.38549 13.91368,-27.11355 1.085,-6.22524 0.71599,-17.17907 -0.76202,-22.622731 -4.25035,-15.65406 -15.62184,-26.01043 -33.32841,-30.35317 -10.07417,-2.47081 -11.11258,-2.52494 -48.44424,-2.52494 h -34.97488 l -19.49927,95.265311 c -10.72459,52.39592 -19.50631,95.32042 -19.51493,95.38776 -0.009,0.0673 6.00464,0.12245 13.36278,0.12245 h 13.37843 z m 14.53096,-70.74536 c 1.02425,-4.93291 4.13253,-20.26484 6.90731,-34.07097 l 5.04505,-25.102041 h 19.92034 c 15.67964,0 20.83494,0.1595 24.21668,0.74923 11.3668,1.9822 18.90402,7.98828 22.10954,17.618121 1.15783,3.47826 1.3032,4.66104 1.29423,10.53061 -0.008,5.12488 -0.23769,7.4535 -1.02191,10.35216 -3.59676,13.29449 -14.16401,23.12874 -29.2438,27.21526 l -4.89796,1.32732 -23.09588,0.17461 -23.09586,0.17462 z m 153.00339,109.92904 c 0.24744,-0.8478 15.48935,-75.39802 15.48935,-75.76036 0,-0.10331 10.85511,-0.29058 24.12245,-0.41617 26.17945,-0.24783 28.75695,-0.45706 40.3679,-3.27698 14.26061,-3.46344 25.50422,-9.61534 34.27964,-18.75604 7.99582,-8.32865 12.58507,-17.30531 15.20924,-29.74964 1.11615,-5.29302 1.24634,-22.11392 0.2066,-26.693881 -3.91068,-17.2262 -15.02082,-28.2362 -33.12803,-32.82948 -8.94358,-2.26873 -10.0583,-2.32777 -48.04217,-2.54472 l -36.2905,-0.20727 -0.7801,3.83155 c -0.42906,2.10735 -9.16976,44.818651 -19.42378,94.913991 -10.25403,50.09534 -18.64369,91.36677 -18.64369,91.71429 0,0.5003 2.74653,0.63185 13.19147,0.63185 12.14151,0 13.21142,-0.0682 13.44162,-0.85714 z m 20.07027,-97.72367 c 0.17138,-0.68288 3.41045,-16.63666 7.19784,-35.45285 3.78745,-18.816181 6.99943,-34.596961 7.13775,-35.068391 0.23437,-0.79866 1.64988,-0.85714 20.74687,-0.85714 16.13393,0 21.3123,0.1556 24.33434,0.73122 16.5721,3.1565 24.52383,14.57783 22.81116,32.764451 -0.71387,7.58033 -1.65149,11.23404 -4.28787,16.70841 -4.36324,9.06014 -11.47542,15.18204 -21.686,18.6665 -8.59896,2.93449 -11.31052,3.20439 -35.06772,3.4905 l -21.49798,0.2589 z"
     id="path4128"
     inkscape:connector-curvature="0" />
</svg>
