<svg width="24" height="24" xmlns="http://www.w3.org/2000/svg">

 <g>
  <title>background</title>
  <rect fill="none" id="canvas_background" height="402" width="582" y="-1" x="-1"/>
 </g>
 <g>
  <title>Layer 1</title>
  <path id="svg_3" d="m20.89903,7.928461a3.89905,3.9431 0 1 1 -7.7981,0a3.89905,3.9431 0 1 1 7.7981,0z"/>
  <path id="svg_4" d="m16.99998,11.082922c-0.995817,0 -1.944846,0.157724 -2.802637,0.552034c-2.249752,1.025206 -3.881816,3.15448 -4.166915,5.756926c0,0.867482 0.649504,1.57724 1.510882,1.57724l10.91734,0c0.86169,0 1.511272,-0.709758 1.511272,-1.57724c-0.28541,-2.602446 -1.917553,-4.73172 -4.167305,-5.756926c-0.857791,-0.39431 -1.80682,-0.552034 -2.802637,-0.552034z"/>
  <path id="svg_6" d="m10.89903,7.928461a3.89905,3.9431 0 1 1 -7.7981,0a3.89905,3.9431 0 1 1 7.7981,0z"/>
  <path id="svg_7" d="m6.99998,11.082922c-0.995817,0 -1.944846,0.157724 -2.802637,0.552034c-2.249752,1.025206 -3.881816,3.15448 -4.166915,5.756926c0,0.867482 0.649504,1.57724 1.510882,1.57724l10.91734,0c0.86169,0 1.511272,-0.709758 1.511272,-1.57724c-0.28541,-2.602446 -1.917553,-4.73172 -4.167305,-5.756926c-0.857791,-0.39431 -1.80682,-0.552034 -2.802637,-0.552034z"/>
  <path id="svg_8" fill="#2c3e50" d="m8.4062,12.699976c-2.8856,1.3 -4.9781,4 -5.3437,7.3c0,1.1 0.8329,2 1.9375,2l14,0c1.105,0 1.938,-0.9 1.938,-2c-0.366,-3.3 -2.459,-6 -5.344,-7.3c-0.649,1.3 -2.011,2.3 -3.594,2.3s-2.9453,-1 -3.5938,-2.3z"/>
  <path id="svg_9" fill="#34495e" d="m17,7a5,5 0 1 1 -10,0a5,5 0 1 1 10,0z"/>
  <path id="svg_10" fill="#34495e" d="m12,11c-1.277,0 -2.4943,0.269 -3.5938,0.75c-2.8856,1.262 -4.9781,3.997 -5.3437,7.25c0,1.105 0.8329,2 1.9375,2l14,0c1.105,0 1.938,-0.895 1.938,-2c-0.366,-3.253 -2.459,-5.988 -5.344,-7.25c-1.1,-0.481 -2.317,-0.75 -3.594,-0.75z"/>
 </g>
</svg>