<?xml version="1.0" encoding="UTF-8" standalone="no"?>
<svg
   xmlns:dc="http://purl.org/dc/elements/1.1/"
   xmlns:cc="http://creativecommons.org/ns#"
   xmlns:rdf="http://www.w3.org/1999/02/22-rdf-syntax-ns#"
   xmlns:svg="http://www.w3.org/2000/svg"
   xmlns="http://www.w3.org/2000/svg"
   xmlns:sodipodi="http://sodipodi.sourceforge.net/DTD/sodipodi-0.dtd"
   xmlns:inkscape="http://www.inkscape.org/namespaces/inkscape"
   width="512"
   height="512"
   version="1.1"
   id="svg15"
   sodipodi:docname="cncerp-mokuai.svg"
   inkscape:version="0.92.4 (5da689c313, 2019-01-14)">
  <metadata
     id="metadata21">
    <rdf:RDF>
      <cc:Work
         rdf:about="">
        <dc:format>image/svg+xml</dc:format>
        <dc:type
           rdf:resource="http://purl.org/dc/dcmitype/StillImage" />
      </cc:Work>
    </rdf:RDF>
  </metadata>
  <defs
     id="defs19" />
  <sodipodi:namedview
     pagecolor="#ffffff"
     bordercolor="#666666"
     borderopacity="1"
     objecttolerance="10"
     gridtolerance="10"
     guidetolerance="10"
     inkscape:pageopacity="0"
     inkscape:pageshadow="2"
     inkscape:window-width="1366"
     inkscape:window-height="745"
     id="namedview17"
     showgrid="false"
     inkscape:zoom="0.4609375"
     inkscape:cx="256"
     inkscape:cy="256"
     inkscape:window-x="-8"
     inkscape:window-y="-8"
     inkscape:window-maximized="1"
     inkscape:current-layer="svg15" />
  <g
     id="g5">
    <title
       id="title2">background</title>
    <rect
       fill="none"
       id="canvas_background"
       height="402"
       width="582"
       y="-1"
       x="-1" />
  </g>
  <path
     style="fill:#005fbf"
     inkscape:connector-curvature="0"
     d="m 417.555,282.497 c 0,28.278 -23.007,51.285 -51.285,51.285 -28.221,0 -51.178,-23.007 -51.178,-51.285 0,-3.993 0.46,-7.945 1.371,-11.812 h -45.777 v 52.091 c 0,1.537 -0.754,2.977 -2.018,3.852 -1.262,0.875 -2.874,1.077 -4.313,0.536 -4.781,-1.793 -9.778,-2.702 -14.853,-2.702 -23.112,0 -41.914,18.755 -41.914,41.808 0,23.111 18.802,41.914 41.914,41.914 5.146,0 10.116,-0.935 14.773,-2.778 0.18,-0.071 0.363,-0.131 0.549,-0.179 0.927,-0.239 1.9,-0.189 2.79,0.137 0.355,0.131 0.698,0.306 1.019,0.523 1.284,0.873 2.052,2.323 2.052,3.875 v 52.092 H 398.3 c 35.043,0 63.554,-28.511 63.554,-63.554 V 270.686 h -45.699 c 0.93,3.827 1.4,7.778 1.4,11.811 z"
     id="svg_2" />
  <path
     style="fill:#003f7f"
     inkscape:connector-curvature="0"
     d="m 178.218,366.27 c 0,-28.221 23.007,-51.178 51.285,-51.178 3.993,0 7.945,0.46 11.812,1.371 v -45.777 h -52.09 c -1.345,0 -2.614,-0.576 -3.498,-1.567 -0.126,-0.142 -0.244,-0.291 -0.353,-0.449 -0.876,-1.264 -1.077,-2.875 -0.537,-4.313 1.792,-4.78 2.701,-9.777 2.701,-14.853 0,-23.112 -18.754,-41.914 -41.807,-41.914 -23.111,0 -41.914,18.802 -41.914,41.914 0,5.146 0.934,10.117 2.777,14.773 0.571,1.443 0.391,3.075 -0.481,4.358 -0.763,1.124 -1.969,1.852 -3.299,2.016 -0.189,0.024 -0.381,0.036 -0.575,0.036 H 50.147 V 398.3 c 0,35.043 28.51,63.554 63.553,63.554 h 127.614 v -45.698 c -3.826,0.93 -7.778,1.399 -11.812,1.399 -28.277,0 -51.284,-23.007 -51.284,-51.285 z"
     id="svg_3" />
  <path
     style="fill:#005fbf"
     inkscape:connector-curvature="0"
     d="m 94.446,229.503 c 0,-28.278 23.006,-51.285 51.285,-51.285 28.22,0 51.178,23.007 51.178,51.285 0,3.994 -0.459,7.946 -1.371,11.812 h 45.777 v -53.59 c 0,-1.662 0.88,-3.198 2.313,-4.04 1.433,-0.842 3.203,-0.861 4.654,-0.053 6.094,3.397 12.973,5.192 19.894,5.192 23.052,0 41.807,-19.331 41.807,-43.092 0,-23.761 -18.755,-43.092 -41.807,-43.092 -7.095,0 -13.956,1.785 -19.843,5.163 -1.449,0.832 -3.232,0.828 -4.68,-0.01 -1.447,-0.837 -2.337,-2.383 -2.337,-4.054 V 50.147 H 113.7 c -35.043,0 -63.553,28.51 -63.553,63.553 v 127.614 h 45.698 c -0.93,-3.826 -1.399,-7.777 -1.399,-11.811 z"
     id="svg_4" />
  <path
     style="fill:#003f7f"
     inkscape:connector-curvature="0"
     d="M 398.3,50.147 H 270.686 v 46.238 c 5.504,-2.052 11.436,-3.117 17.489,-3.117 28.22,0 51.178,23.534 51.178,52.463 0,28.928 -22.958,52.463 -51.178,52.463 -5.962,0 -11.897,-1.082 -17.489,-3.163 v 46.283 h 52.092 c 1.535,0 2.976,0.754 3.85,2.017 0.877,1.263 1.076,2.875 0.537,4.314 -1.793,4.78 -2.701,9.777 -2.701,14.852 0,23.111 18.754,41.914 41.807,41.914 23.111,0 41.914,-18.803 41.914,-41.914 0,-5.145 -0.935,-10.115 -2.779,-14.772 -0.143,-0.361 -0.238,-0.733 -0.287,-1.109 -0.15,-1.128 0.115,-2.286 0.77,-3.249 0.655,-0.963 1.634,-1.635 2.738,-1.912 0.367,-0.092 0.749,-0.14 1.137,-0.14 h 52.092 V 113.7 C 461.854,78.657 433.343,50.147 398.3,50.147 Z"
     id="svg_5" />
</svg>
