<svg width="512" height="512" xmlns="http://www.w3.org/2000/svg">

 <g>
  <title>background</title>
  <rect fill="none" id="canvas_background" height="402" width="582" y="-1" x="-1"/>
 </g>
 <g>
  <title>Layer 1</title>
  <path fill="#050f0f" id="svg_3" d="m256,111.900002c0,0 0,0 0,0l0,0z"/>
  <path fill="#050f0f" id="svg_4" d="m349.200012,334.799988c-11.200012,-3.899994 -29.5,-5.100006 -37.5,-8.200012c-5.600006,-2.199982 -14.5,-4.5 -17.299988,-8c-2.900024,-3.399994 -2.900024,-28.099976 -2.900024,-28.099976s7,-6.5 9.900024,-13.800018c2.899994,-7.299988 4.799988,-27.099991 4.799988,-27.099991s0.600006,0.199997 1.5,0.199997c2.100006,0 5.899994,-1.399994 7.700012,-10.599991c2.199982,-11.300003 6.399994,-17.200012 5.299988,-25.5c-0.799988,-5.600006 -3.200012,-6.5 -4.600006,-6.5c-0.699982,0 -1.199982,0.199997 -1.199982,0.199997s5.699982,-8.400009 5.699982,-37c0,-29.400009 -22.699982,-58.400002 -64.600006,-58.500008c-41.999985,0.100006 -64.599976,29.099998 -64.599976,58.500008c0,28.5 5.699997,37 5.699997,37s-0.5,-0.199997 -1.199997,-0.199997c-1.5,0 -3.900009,0.899994 -4.600006,6.5c-1.099991,8.299988 3,14.299988 5.300003,25.5c1.800003,9.199997 5.600006,10.599991 7.699997,10.599991c0.900009,0 1.5,-0.199997 1.5,-0.199997s1.900009,19.900009 4.800003,27.099991c2.899994,7.300018 9.899994,13.800018 9.899994,13.800018s0,24.699982 -2.899994,28.099976c-2.899994,3.400024 -11.699997,5.800018 -17.300003,8c-8,3.100006 -26.300003,4.300018 -37.5,8.200012c-11.199997,3.899994 -45.799995,20.200012 -45.799995,65.199982l277.999977,0c0,-44.999969 -34.5,-61.299957 -45.799988,-65.199982z"/>
  <path fill="#050f0f" id="svg_5" d="m144.100006,322c9,-4.5 17.800003,-4.5 24.600006,-5.399994c0,0 3.800003,-6.200012 -8.699997,-8.399994c0,0 -17.100006,-4.300018 -19.100006,-6.700012c-2,-2.399994 -0.800003,-15.700012 -0.800003,-15.700012s23.900009,-0.799988 33.400009,-9.199982c-15.5,-23.200012 -7.200012,-50.300003 -10.400009,-75.600006c-3.100006,-25.199997 -18.200012,-41 -47.100006,-41c-0.099998,0 0,0 -1,0l0,0c-28,0 -42.400002,15.800003 -45.599998,41.100006c-3.200005,25.299988 6,55.399994 -9.900002,75.699982c8.900002,7.900024 30.900002,8.300018 33.400002,8.300018c0.199997,0 0.199997,0 0.199997,0c0,0 0.099998,-0.100006 0.099998,-0.100006s1,14.200012 -1,16.600006c-2,2.399994 -7.899994,4.600006 -11.899994,5.5c-8.800003,1.899994 -18.100002,5 -25.800003,7.699982c-7.700001,2.600006 -22.5,18.200012 -22.5,37.200012l80.199997,0c2.200005,-8 17.300003,-22.600006 31.900009,-30z"/>
  <path fill="#050f0f" id="svg_6" d="m399.799988,352l80.200012,0c0,-19 -14.799988,-34.600006 -22.5,-37.299988c-7.700012,-2.700012 -17.100006,-5.800018 -25.799988,-7.700012c-4.100006,-0.899994 -9.900024,-3.100006 -11.900024,-5.5c-2,-2.399994 -1,-16.600006 -1,-16.600006s0.100006,0.100006 0.100006,0.100006c0,0 0.100006,0 0.200012,0c2.5,0 24.600006,-0.299988 33.5,-8.299988c-15.899994,-20.300018 -6.800018,-50.400009 -10,-75.700012c-3.200012,-25.199997 -17.600006,-41 -45.600006,-41l0,0c-1,0 -1,0 -1,0c-28.899994,0 -44.100006,15.800003 -47.200012,41.100006c-3.199982,25.299988 5.100006,52.399994 -10.399994,75.600006c9.5,8.399994 33.399994,9.199982 33.399994,9.199982s1.200012,13.300018 -0.799988,15.700012s-19.100006,6.699982 -19.100006,6.699982c-12.5,2.200012 -8.699982,8.400024 -8.699982,8.400024c6.799988,0.899994 15.699982,0.899994 24.599976,5.399994c14.700012,7.299988 29.800018,21.899994 32,29.899994z"/>
 </g>
</svg>