<svg width="234.928" height="196.992" xmlns="http://www.w3.org/2000/svg">

 <g>
  <title>background</title>
  <rect fill="none" id="canvas_background" height="402" width="582" y="-1" x="-1"/>
 </g>
 <g>
  <title>Layer 1</title>
  <path id="svg_2" d="m200.835999,140.735001l-23.5,0l-0.001999,41.501999c0,7.865997 -6.298996,14.272995 -14.115005,14.477997c0.445007,0.171997 0.92601,0.276001 1.432999,0.276001l53.695007,0c2.209,0 4,-1.791 4,-4l0,-54.712997c0,-2.209 -1.791,-4 -4,-4l-5.459,0c-2.602997,3.889999 -7.033005,6.457001 -12.052002,6.457001z"/>
  <path id="svg_3" d="m213.335999,97.987999l0,-0.021996c-0.065994,0.023994 -0.128998,0.049995 -0.194992,0.072998l0.194992,-0.051003z"/>
  <path id="svg_4" d="m188.210999,113.735001l-25.376999,0c-3.291,0 -6.511993,1.332001 -8.837997,3.661003c-2.330002,2.325996 -3.662003,5.547997 -3.662003,8.838997l0,56.000992c0,6.903015 5.595993,12.499008 12.5,12.499008s12.5,-5.595993 12.5,-12.499008l0.001999,-43.501999l14.813995,0l0,0.001007l10.684006,0l0,0.000992c0.005997,0 0.009995,-0.001999 0.016006,-0.001999c6.895996,-0.007996 12.483994,-5.599991 12.483994,-12.498993l0.001999,0l0,-13.369003l-25.192993,0l0.067993,0.869003z"/>
  <path id="svg_5" d="m139.313995,182.235992l0,-43.501007l9.021011,0l0,-12.499992c0,-3.822006 1.548996,-7.558006 4.25,-10.253006c0.878998,-0.880997 1.876999,-1.625 2.944992,-2.246994l-28.716995,0c-2.493004,0 -4.943001,0.768997 -6.999001,2.152c0.032997,0.032997 0.07,0.060997 0.102997,0.092995c2.700996,2.703003 4.248001,6.440002 4.248001,10.256004l0,56c0,4.052002 -1.674004,7.716003 -4.361,10.348999c1.999001,1.356995 4.412003,2.151001 7.010002,2.151001c6.904991,0 12.499992,-5.596985 12.499992,-12.5z"/>
  <circle id="svg_6" r="22.5" cy="22.5" cx="178.457"/>
  <polygon id="svg_7" points="21.144,106.659 21.144,100.867 0,100.867 0,109.867 21.144,109.867 21.144,106.659  "/>
  <rect id="svg_8" y="100.867" x="79.234" width="153.266" height="9"/>
  <path id="svg_9" d="m90.828003,192.992004l0,-52.257004l-55.183002,0c-2.344002,0 -4.553001,-0.572006 -6.514,-1.563995l0,53.819992c0,2.209 1.791,4 4,4l53.697002,0c2.209,0.001007 4,-1.789993 4,-3.998993z"/>
  <path id="svg_10" d="m57.438999,0.167c-12.424,0 -22.497997,10.074 -22.497997,22.5c0,5.156 1.737999,9.903999 4.653999,13.698002l29.907997,0c0.457001,0 0.912003,0.035 1.389,0.104c0.404999,-0.045002 0.760002,-0.069 1.108002,-0.069l0.166,0c0.940002,0 1.894997,0.120998 2.830002,0.330997c3.089996,-3.853001 4.943001,-8.740999 4.943001,-14.063999c0,-12.426 -10.074005,-22.5 -22.500004,-22.5z"/>
  <path id="svg_11" d="m21.143999,76.861c-1.960999,-1.517998 -2.789999,-2.827003 -3.203999,-3.862c-0.001001,-0.001999 -0.002001,-0.002998 -0.003,-0.004997c-0.209,-0.546005 -0.304001,-1.085007 -0.347,-1.665001c-0.012001,-0.156006 -0.041,-0.300003 -0.041,-0.465004c-0.01,-1.382996 0.459,-3.216995 1.525,-5.226997c0.963001,-1.859001 2.43,-3.795002 4.07,-5.514l0,66.111l0,0c0,6.903999 5.596001,12.499992 12.500002,12.499992l61.52,0l0,43.501007c0,6.901993 5.596001,12.5 12.5,12.5c6.903999,0 12.5,-5.598007 12.5,-12.5l0,-56.000999c0,-3.291 -1.332001,-6.511002 -3.660004,-8.840004c-2.327995,-2.324997 -5.548996,-3.659996 -8.839996,-3.659996l-32.43,0l0,-22.010002c3.380997,3.371002 7.392998,4.811005 10.931999,5.701004c4.028999,0.962997 7.816002,1.146996 10.730003,1.155998c2.974998,-0.001999 5.019997,-0.223 5.229996,-0.246002c4.395004,-0.482002 7.563004,-4.433998 7.080002,-8.823997c-0.484001,-4.393005 -4.438004,-7.563004 -8.830002,-7.078003c-0.18,0.017998 -1.585999,0.148003 -3.479996,0.148003c-2.104004,0.005997 -4.840004,-0.183998 -6.980003,-0.710999c-2.198997,-0.486 -3.445,-1.400002 -3.448997,-1.521004c-1.410004,-1.719002 -2.481003,-4.402 -3.084,-7.889c-0.945,-5.224998 -0.703003,-11.669998 -0.951004,-17.511997c-0.182999,-2.973003 -0.328003,-5.801003 -1.653999,-9.139004c-0.686996,-1.644997 -1.823997,-3.560997 -3.821999,-5.101997c-1.974998,-1.563 -4.686005,-2.350002 -6.953003,-2.309002c-0.389,0 -0.767998,0.037003 -1.140999,0.09c-0.439003,-0.077999 -0.890999,-0.125 -1.354996,-0.125l-38.634005,0c-0.605,0 -1.191,0.076 -1.757999,0.209c-3.077999,0.422001 -5.555,1.594002 -8.112999,3.002003c-4.551001,2.640999 -9.029001,6.503998 -12.738001,11.372997c-3.641,4.855 -6.66,10.830002 -6.713,17.914001c0,0.393997 0.031,0.795998 0.052,1.195c0.112,2.126999 0.528,4.306999 1.321,6.428001c0.035,0.102997 0.062,0.208 0.103,0.310997l0,-0.001999c2.002,5.193001 6.098,9.666 11.686,13.032997c1.943,1.177002 4.089999,2.243004 6.432,3.218002l-0.001001,-18.182999z"/>
  <path id="svg_12" d="m124.389,99.886002l2.080002,-2.141998l1.391998,-1.434006c1.204994,1.093002 2.749992,1.834999 4.491997,2.027c0.210999,0.023003 2.255997,0.244003 5.229996,0.246002c2.914001,-0.010002 6.701004,-0.193001 10.730011,-1.155998c3.539001,-0.890999 7.550995,-2.330002 10.931992,-5.701004l0,6.140999l14.994003,0l5.018005,-36.977997c1.296997,0.486 2.662003,0.740002 4.024994,0.738998l0.001999,0c0,0 0.003998,0 0.005997,0c1.363007,0 2.727005,-0.253998 4.021011,-0.739998l3.294998,24.273003c1.457001,-1.683006 3.416,-2.828003 5.634995,-3.257004c8.755997,-1.685997 13.630997,-3.896996 16.17601,-5.456001c0.334,-0.205002 0.634995,-0.403 0.917999,-0.598l0,-2.938995l0,-12.787003c1.640991,1.718998 3.106995,3.653999 4.069992,5.514c1.065994,2.010002 1.535004,3.844002 1.524994,5.226997c-0.001999,0.165001 -0.028992,0.309006 -0.040985,0.465004c-0.043015,0.580002 -0.139008,1.117996 -0.348007,1.665001c0,0.000999 -0.001999,0.002998 -0.001999,0.004997c-0.104004,0.257004 -0.242004,0.536003 -0.404007,0.824997c-0.675995,1.196007 -1.955002,2.658005 -4.671997,4.329002c-3.347992,2.046997 -8.819992,4.167999 -16.841995,5.712997c-4.335999,0.838005 -7.173996,5.035004 -6.332001,9.375c0.737991,3.824005 4.089996,6.479004 7.843994,6.479004c0.506012,0 1.016998,-0.048004 1.531006,-0.147003c9.296997,-1.808998 16.483994,-4.343994 22.102005,-7.743996c2.895996,-1.746002 5.382996,-3.794998 7.394989,-6.081001c1.867004,-2.124001 3.326004,-4.451004 4.291,-6.952003l0,0.002007c0.039001,-0.103004 0.06601,-0.207001 0.102005,-0.311005c0.794998,-2.121002 1.210999,-4.301003 1.322006,-6.428001c0.020996,-0.398994 0.052994,-0.800995 0.050995,-1.195c-0.050995,-7.084 -3.070007,-13.058998 -6.710999,-17.913998c-3.709,-4.868999 -8.188004,-8.731998 -12.738007,-11.373001c-2.55899,-1.408001 -5.035004,-2.579998 -8.112991,-3.001999c-0.56601,-0.132999 -1.152008,-0.209 -1.758011,-0.209l-8.506989,0c-4.496002,5.277 -11.184006,8.632999 -18.643005,8.632999c-7.104004,0 -13.509995,-3.042999 -17.990005,-7.890999c-1.054993,0.382999 -2.069992,0.911999 -2.940994,1.600998c-1.998001,1.541 -3.134995,3.457001 -3.822006,5.102001c-1.325989,3.338001 -1.470993,6.166 -1.653992,9.139c-0.248001,5.841999 -0.005997,12.286999 -0.951004,17.511997c-0.604004,3.486 -1.673996,6.170006 -3.084,7.889c-0.003998,0.121002 -1.25,1.035004 -3.449005,1.521004c-0.97699,0.240997 -2.077988,0.407997 -3.186996,0.520996l2.307999,-2.376999l2.520996,-2.595001l-2.868988,-2.786995l-5.777008,5.946999l-1.899994,1.957001c-0.867996,-0.040001 -1.445999,-0.094002 -1.557007,-0.104004c-4.39299,-0.484001 -8.345993,2.685005 -8.829994,7.078003c-0.128998,1.169998 0.007996,2.306999 0.353996,3.357002l-1.530998,1.576996l-3.053001,3.142998l0.284004,0.276001l2.584999,2.511002l0.474998,-0.490997zm55.094994,-51.177002l3.800995,0l3.798996,0l1.900009,7.5l-0.289001,0.456001c-1.563995,1.306 -3.484009,1.959999 -5.412003,1.961998c-1.927994,-0.001999 -3.841995,-0.654999 -5.406006,-1.958l-0.292999,-0.459999l1.900009,-7.5z"/>
 </g>
</svg>