<svg width="512" height="512" xmlns="http://www.w3.org/2000/svg">

 <g>
  <title>background</title>
  <rect fill="none" id="canvas_background" height="402" width="582" y="-1" x="-1"/>
 </g>
 <g>
  <title>Layer 1</title>
  <polygon fill="#052626" id="svg_2" points="88.334,344.822 107.412,344.822 107.412,411.207 144.712,411.207 144.712,344.822 163.789,344.822     126.062,289.533   "/>
  <rect fill="#052626" id="svg_3" y="24.83" x="226.621" width="58.757" height="264.988"/>
  <polygon fill="#052626" id="svg_4" points="397.738,24.83 293.378,24.83 293.378,186.105 476.106,186.105   "/>
  <polygon fill="#052626" id="svg_5" points="218.621,24.83 122.499,24.83 36.181,186.105 218.621,186.105   "/>
  <path fill="#052626" id="svg_6" d="m293.378,297.818l-74.757,0l0,-101.328l-185.118,0l0,290.023l444.994,0l0,-290.023l-185.119,0l0,101.328zm-140.666,55.004l0,66.385l-53.3,0l0,-66.385l-26.221,0l52.871,-77.482l52.872,77.482l-26.222,0z"/>
 </g>
</svg>